<svg xmlns="http://www.w3.org/2000/svg" xmlns:xlink="http://www.w3.org/1999/xlink" width="188" height="136" viewBox="0 0 188 136">
    <defs>
        <path id="entjn06yda" d="M144.244 90.961H4.544c-1.42 0-2.583-1.168-2.583-2.596L.043 6.742C0 4.95.692 3.219 1.954 1.953 3.177.727 4.832.042 6.554.042c.056 0 .113 0 .169.002l51.948 1.352 11.096.289c-.205.372-.403.748-.595 1.13-.325.646-.629 1.298-.91 1.954L7.26 3.123l-.123-.002c-1.208 0-2.37.483-3.228 1.343-.887.89-1.374 2.109-1.343 3.369l1.946 78.04c0 1.354 1.1 2.46 2.444 2.46h133.92c1.343 0 2.443-1.106 2.443-2.46l1.097-73.314c-.125-4.29-3.764-5.908-6.108-5.908-.067 0-.132 0-.197.004l-3.581-.098c-.432-1.096-.917-2.171-1.456-3.224l10.179.265c.11-.008.218-.011.325-.011 2.712 0 4.25 2.378 4.4 3.797.008.077.012.15.012.22l-1.158 80.457-.004.304c0 1.428-1.163 2.596-2.584 2.596"/>
        <path id="d4xvneawrd" d="M139.386 84.933H4.472c-1.354 0-2.462-1.102-2.462-2.45L.05 4.736C.018 3.48.51 2.267 1.403 1.38 2.268.523 3.437.042 4.655.042c.041 0 .082 0 .124.002l61.454 1.64c-3.569 8.217-3.7 17.161-.955 25.193h-.452v3.009h1.634c.327.731.677 1.452 1.053 2.162h-2.687v3.01h4.469c.439.664.898 1.313 1.383 1.95h-5.852v3.01h8.407c2.837 2.993 6.24 5.562 10.152 7.532 5.327 2.684 10.994 3.955 16.558 3.955 3.379 0 6.72-.469 9.925-1.375h6.737v-2.66c1.362-.704 2.68-1.496 3.943-2.374l14.075.001v-3.01h-10.32c2.97-2.735 5.504-6.024 7.433-9.815.38-.746.73-1.499 1.051-2.259h2.625v-3.009H133.9c.213-.67.404-1.343.574-2.019h1.46v-3.008h-.844c.107-.672.194-1.346.26-2.02h.358V16.95h-.193c.044-3.852-.553-7.675-1.739-11.318l1.593.042c.011 0 .052-.002.117-.002.512 0 2.538.087 3.871 1.356.805.768 1.216 1.843 1.222 3.19l-.335 22.688c-.003.198.157.362.356.364h.005c.197 0 .358-.157.361-.353l.335-22.694c-.008-1.557-.493-2.806-1.445-3.713-1.499-1.429-3.662-1.557-4.319-1.557-.084 0-.144.002-.173.004l-1.832-.049c-.169-.483-.348-.965-.538-1.442l3.608.097c.065-.002.13-.004.198-.004 2.361 0 6.028 1.612 6.154 5.886l-1.105 73.04c0 1.347-1.108 2.45-2.462 2.45"/>
        <path id="v28ss3b9tf" d="M.402 7.956h165.194c.213 0 .387-.194.387-.431V.485c0-.237-.174-.43-.387-.43H.402c-.213 0-.387.193-.387.43v7.04c0 .237.174.43.387.43"/>
        <path id="ngfe2239ci" d="M65.997 4.989L.043 3.174c.28-.666.582-1.328.906-1.984.19-.387.388-.77.592-1.147l63.007 1.673c.536 1.069 1.019 2.16 1.449 3.273"/>
        <path id="sz1jf5kz7l" d="M36.52 49.973c-5.548 0-11.197-1.274-16.508-3.963-3.9-1.974-7.293-4.549-10.121-7.548h.475v-3.015H7.343c-.483-.639-.94-1.29-1.378-1.956h4.4v-3.015H4.189c-.374-.712-.724-1.434-1.05-2.167h7.228v-3.015H1.96C-.777 17.245-.646 8.283 2.912.048L69.47 1.833c.19.478.368.96.537 1.445L29.851 2.201c-.01-.002-.02-.002-.03-.002-.196 0-.334.162-.34.352-.004.198.152.364.351.368L70.25 4.003c1.183 3.651 1.778 7.482 1.734 11.342l-41.498-.002v3.016l41.333.001c-.066.675-.153 1.35-.259 2.023l-41.479-.002v3.016l40.865.001c-.17.677-.36 1.352-.573 2.023H30.08v3.014l39.184.001c-.32.762-.669 1.516-1.048 2.264-1.923 3.8-4.45 7.095-7.41 9.836l-30.32-.001v3.015l26.576.001c-1.26.88-2.573 1.673-3.93 2.379v-.35H29.945v3.014h16.469c-3.195.91-6.527 1.38-9.895 1.38M26.85 35.5v3.016l34.315.001v-3.015L26.85 35.5m-13.125-5.045v3.015l36.638.001v-3.015l-36.638-.001M1.51 20.38v3.015l8.857.001V20.38H1.509m0-5.034v3.015h8.857v-3.015H1.509m21.43-5.041v3.015l34.152.001v-3.015l-34.153-.001M1.51 10.304v3.016h8.857v-3.015l-8.857-.001m12.218-5.038V8.28l42.47.002c0-1.666-1.37-3.016-3.057-3.016l-39.413-.001m-12.218 0v3.015l8.857.001V5.267H1.509"/>
        <path id="ya02esqvno" d="M9.475 24.058C17.854 7.534 38.308 1.045 55.16 9.566c16.852 8.522 23.72 28.825 15.34 45.35-8.38 16.523-28.833 23.01-45.685 14.49C7.963 60.884 1.095 40.58 9.475 24.058zM4.22 21.4c-9.822 19.37-1.772 43.168 17.982 53.156 19.753 9.989 43.73 2.384 53.55-16.985 9.823-19.37 1.773-43.169-17.981-53.157C38.019-5.574 14.042 2.032 4.22 21.401z"/>
        <path id="kz2l4uwlmr" d="M6.044.556C2.382.556.762.285.038.038c.14.519.676.928 1.353.928h12.954c.436 0 .712-.36.608-.686-1.477.102-4.613.276-8.909.276"/>
        <path id="37j97pd61u" d="M14.953 3.652c-.021-.08-.052-.16-.107-.234C13.86 2.081 11.878-.019 9.181.021 5.231.08 3.854.535.784.046L.06 2.595c-.074.259-.075.519-.022.76.724.303 2.344.637 6.006.637 4.296 0 7.432-.214 8.909-.34"/>
        <path id="4k167o058x" d="M.918.074L.058 3.48s1.906 1.01 3.584.2l.33-2.952L.917.074"/>
        <path id="k8zy7odz5z" d="M4.623 5.539C2.043 7.713.725 8.445.053 8.664c.439.359 1.084.39 1.56-.012L10.738.959c.307-.259.266-.73-.02-.946-.974.965-3.07 2.975-6.095 5.526"/>
        <path id="7iymy50qeC" d="M11.98.419c-.06-.043-.123-.08-.2-.098-1.416-.335-3.944-.61-5.835.995-2.77 2.351-3.504 3.468-5.942 4.93L.85 8.407c.086.22.224.398.39.532.676-.216 2.004-.937 4.6-3.078C8.89 3.349 11 1.369 11.98.419"/>
        <path id="g1sc0i004F" d="M3.982.04s20.534 1.692 24.747 3.695c4.213 2.002-3.437 30.072-3.437 30.072s-1.147.558-3.7-.244c0 0 2.618-20.714.67-25.206L.03 4.685 3.982.039"/>
        <path id="yhm9be3hiI" d="M.072 1.219c.207.166 2.21 3.735 2.21 3.735s2.231-.426 2.686-1.673L2.961.061.072 1.218"/>
        <path id="iq5xpr02iK" d="M.705.003S.04 1.609.067 3.745C.105 6.698 2.47 9.093 5.407 9.24l24.127 1.105c.51.023.94.377 1.069.873.566 2.202 3.338 8.963 16.884 22.455.36.359.923.42 1.352.147l1.928-1.223c.203-.128.267-.394.146-.602L36.865 7.91c-.738-1.223-1.924-2.106-3.303-2.46L12.997.175.705.003"/>
        <path id="uf8gr7n3yN" d="M4.938.037S2.51 4.646.034 6.878l5.117 3.065S6.305 5.065 8.94 3.635l-4-3.598"/>
        <path id="h29p7wv7yP" d="M.066 32.216s6.68 1.614 13.056 0c0 0 8.921-11.894 12.373-15.13 0 0 5.506 8.615 17.76 9.835l.683-1.514s-9.755-4.46-12.759-11.312c-3.003-6.853-4.21-9.775-6.942-11.563-1.701-1.114-2.72-1.875-3.247-2.29-.288-.228-.686-.254-1-.063C17.09 1.931 3.444 11.198.065 32.216"/>
        <path id="7ncbj35d0R" d="M.046.056s1.401 3.122 3.895 5.901L.046.056"/>
        <path id="ib2gd45loU" d="M.037 1.642l1.287-.42L5.23.115c.47-.132.964-.03 1.372.284L9.96 2.984.686 2.965.037 1.642"/>
        <path id="hbu3xzi3qW" d="M6.84.063S9.18 4.068 9.587 6.282c.406 2.213 1.058 3.597-1.39 4.385-2.45.79-4.725-.21-6.153-2.275 0 0-2.23-3.18-2.008-4.636C.259 2.3 6.839.063 6.839.063"/>
        <path id="vm638mnqjZ" d="M6.812 12.237l.361-.046S5.28 9.424 6.52 8.738c1.239-.687 6.286-2.37 7.163-4.293.845-1.853-.42-3.948-1.943-4.385-.097-.027-.199.027-.234.12l-.089.232c-.061.16-.293.166-.363.01-.067-.148-.287-.154-.356-.007-.27.577-1.08 1.56-3.507 2.321-3.444 1.08-5.59 2.76-5.325 5.126.017.15-.137.254-.28.194-.282-.121-.709-.14-1.204.384-.862.912-.187 2.907 2.167 4.318.112.067.132.22.032.302-.352.292-.848.942.745 1.522 1.63.593 2.518.392 2.847.265.088-.034.139-.123.12-.213l-.418-2.074c-.022-.108.055-.21.167-.225l.77-.098"/>
        <path id="qq0gy0k5eac" d="M1.997 2.396S1.155-.911.27.25c-.885 1.163.818 3.732 1.604 3.698l.123-1.553"/>
        <path id="uqq83rgw9ae" d="M.92 2.897c.015 0 .03.002.046 0l20.106-.03c.497-.001.9-.638.9-1.42-.001-.785-.406-1.434-.902-1.42L.964.06c-.497 0-.9.636-.9 1.42.001.76.38 1.38.856 1.417"/>
        <path id="f1tngg6umah" d="M8.339.566l-.02.043L.142 19.665c-.203.47-.014 1.03.421 1.247.436.219.96.015 1.154-.458L9.895 1.398c.202-.47.013-1.03-.422-1.247-.422-.211-.92-.025-1.134.415"/>
        <path id="mg11x3mxlak" d="M3.61 0l52.885 56.39c2.219 2.365 1.95 6.117-.581 8.143l-.416.333c-2.24 1.792-5.513 1.42-7.292-.83L0 3.076 3.61 0"/>
        <linearGradient id="32itkl5erb" x1="58.881%" x2="36.58%" y1="66.304%" y2="24.944%">
            <stop offset="0%" stop-color="#08005D"/>
            <stop offset="100%" stop-color="#1A0F91"/>
        </linearGradient>
        <linearGradient id="0lzh03fwqg" x1="11.984%" x2="101.214%" y1="49.511%" y2="50.659%">
            <stop offset="0%" stop-color="#08005D"/>
            <stop offset="100%" stop-color="#1A0F91"/>
        </linearGradient>
        <linearGradient id="0xl7tvkwtj" x1="28.51%" x2="-21.279%" y1="59.305%" y2="47.814%">
            <stop offset="0%" stop-color="#8480AD"/>
            <stop offset="100%" stop-color="#8D86C7"/>
        </linearGradient>
        <linearGradient id="ejuntvhntm" x1="-87.768%" x2="110.308%" y1="81.901%" y2="81.901%">
            <stop offset="0%" stop-color="#A7A9FF"/>
            <stop offset="100%" stop-color="#9FA0F0"/>
        </linearGradient>
        <linearGradient id="wafcadv6sp" x1="95.661%" x2="4.339%" y1="70.509%" y2="29.491%">
            <stop offset="0%" stop-color="#08005D"/>
            <stop offset="100%" stop-color="#1A0F91"/>
        </linearGradient>
        <linearGradient id="t5szyzvirs" x1="0%" x2="99.999%" y1="49.966%" y2="49.966%">
            <stop offset="0%" stop-color="#4F52FF"/>
            <stop offset="100%" stop-color="#4042E1"/>
        </linearGradient>
        <linearGradient id="hu8oeimxwv" x1="77.212%" x2="49.918%" y1="-.76%" y2="52.42%">
            <stop offset="0%" stop-color="#08005D"/>
            <stop offset="100%" stop-color="#1A0F91"/>
        </linearGradient>
        <linearGradient id="tn85kkahjA" x1="0%" x2="99.997%" y1="49.999%" y2="49.999%">
            <stop offset="0%" stop-color="#4F52FF"/>
            <stop offset="100%" stop-color="#4042E1"/>
        </linearGradient>
        <linearGradient id="yrqncx2iuD" x1="73.361%" x2="42.356%" y1="-79.993%" y2="82.925%">
            <stop offset="0%" stop-color="#08005D"/>
            <stop offset="100%" stop-color="#1A0F91"/>
        </linearGradient>
        <linearGradient id="qcuu2aiqpG" x1="92.366%" x2="7.594%" y1="5.45%" y2="92.04%">
            <stop offset="0%" stop-color="#08005D"/>
            <stop offset="100%" stop-color="#1A0F91"/>
        </linearGradient>
        <linearGradient id="4tyv08qw8L" x1="96.102%" x2="79.139%" y1="4.544%" y2="21.101%">
            <stop offset="0%" stop-color="#08005D"/>
            <stop offset="100%" stop-color="#1A0F91"/>
        </linearGradient>
        <linearGradient id="9eilpv0guS" x1="-.002%" x2="100%" y1="50.006%" y2="50.006%">
            <stop offset="0%" stop-color="#E0463C"/>
            <stop offset="100%" stop-color="#E95F5A"/>
        </linearGradient>
        <linearGradient id="glo5k9phxX" x1="72.69%" x2="-5.155%" y1="33.924%" y2="121.13%">
            <stop offset="0%" stop-color="#F8CDBA"/>
            <stop offset="100%" stop-color="#F8CDBA"/>
        </linearGradient>
        <linearGradient id="9hzw7w198aa" x1="27.227%" x2="104.861%" y1="21.688%" y2="101.222%">
            <stop offset="0%" stop-color="#08005D"/>
            <stop offset="100%" stop-color="#1A0F91"/>
        </linearGradient>
        <linearGradient id="vyv6d0s1yaf" x1="-9830.705%" x2="-9668.202%" y1="-2129.049%" y2="-2093.212%">
            <stop offset="0%" stop-color="#08005D"/>
            <stop offset="100%" stop-color="#1A0F91"/>
        </linearGradient>
        <linearGradient id="odjgq99fsai" x1="6615.996%" x2="6507.983%" y1="-4891.22%" y2="-4809.935%">
            <stop offset="0%" stop-color="#08005D"/>
            <stop offset="100%" stop-color="#1A0F91"/>
        </linearGradient>
        <linearGradient id="bykfd78vdal" x1="95.593%" x2="2.742%" y1="77.546%" y2="24.072%">
            <stop offset="0%" stop-color="#08005D"/>
            <stop offset="100%" stop-color="#1A0F91"/>
        </linearGradient>
    </defs>
    <g fill="none" fill-rule="evenodd">
        <g>
            <g>
                <g>
                    <g transform="translate(1) matrix(-1 0 0 1 187 0) translate(10 20)">
                        <mask id="z5eo5hrx5c" fill="#fff">
                            <use xlink:href="#entjn06yda"/>
                        </mask>
                        <path fill="url(#32itkl5erb)" d="M144.244 90.961H4.544c-1.42 0-2.583-1.168-2.583-2.596L.043 6.742C0 4.95.692 3.219 1.954 1.953 3.177.727 4.832.042 6.554.042c.056 0 .113 0 .169.002l51.948 1.352 11.096.289c-.205.372-.403.748-.595 1.13-.325.646-.629 1.298-.91 1.954L7.26 3.123l-.123-.002c-1.208 0-2.37.483-3.228 1.343-.887.89-1.374 2.109-1.343 3.369l1.946 78.04c0 1.354 1.1 2.46 2.444 2.46h133.92c1.343 0 2.443-1.106 2.443-2.46l1.097-73.314c-.125-4.29-3.764-5.908-6.108-5.908-.067 0-.132 0-.197.004l-3.581-.098c-.432-1.096-.917-2.171-1.456-3.224l10.179.265c.11-.008.218-.011.325-.011 2.712 0 4.25 2.378 4.4 3.797.008.077.012.15.012.22l-1.158 80.457-.004.304c0 1.428-1.163 2.596-2.584 2.596" mask="url(#z5eo5hrx5c)"/>
                    </g>
                    <g transform="translate(1) matrix(-1 0 0 1 187 0) translate(13 24)">
                        <mask id="jpvxhrt64e" fill="#fff">
                            <use xlink:href="#d4xvneawrd"/>
                        </mask>
                        <path fill="#2745D8" d="M139.386 84.933H4.472c-1.354 0-2.462-1.102-2.462-2.45L.05 4.736C.018 3.48.51 2.267 1.403 1.38 2.268.523 3.437.042 4.655.042c.041 0 .082 0 .124.002l61.454 1.64c-3.569 8.217-3.7 17.161-.955 25.193h-.452v3.009h1.634c.327.731.677 1.452 1.053 2.162h-2.687v3.01h4.469c.439.664.898 1.313 1.383 1.95h-5.852v3.01h8.407c2.837 2.993 6.24 5.562 10.152 7.532 5.327 2.684 10.994 3.955 16.558 3.955 3.379 0 6.72-.469 9.925-1.375h6.737v-2.66c1.362-.704 2.68-1.496 3.943-2.374l14.075.001v-3.01h-10.32c2.97-2.735 5.504-6.024 7.433-9.815.38-.746.73-1.499 1.051-2.259h2.625v-3.009H133.9c.213-.67.404-1.343.574-2.019h1.46v-3.008h-.844c.107-.672.194-1.346.26-2.02h.358V16.95h-.193c.044-3.852-.553-7.675-1.739-11.318l1.593.042c.011 0 .052-.002.117-.002.512 0 2.538.087 3.871 1.356.805.768 1.216 1.843 1.222 3.19l-.335 22.688c-.003.198.157.362.356.364h.005c.197 0 .358-.157.361-.353l.335-22.694c-.008-1.557-.493-2.806-1.445-3.713-1.499-1.429-3.662-1.557-4.319-1.557-.084 0-.144.002-.173.004l-1.832-.049c-.169-.483-.348-.965-.538-1.442l3.608.097c.065-.002.13-.004.198-.004 2.361 0 6.028 1.612 6.154 5.886l-1.105 73.04c0 1.347-1.108 2.45-2.462 2.45" mask="url(#jpvxhrt64e)"/>
                    </g>
                    <path fill="#7D97F4" d="M152.447 71h-.007c-.247-.002-.443-.15-.44-.33l.109-5.35c.003-.178.202-.32.445-.32h.004c.25.003.446.15.442.33l-.108 5.35c-.003.178-.202.32-.445.32M153.295 57h-.004c-.202-.003-.364-.17-.36-.372l.338-23.12c-.006-1.373-.422-2.469-1.236-3.25-1.521-1.46-3.935-1.385-4.036-1.38l-42.641-1.146c-.202-.005-.36-.174-.356-.375.006-.202.16-.374.375-.356l42.616 1.146c.265-.016 2.835-.06 4.547 1.582.963.924 1.454 2.197 1.462 3.784l-.34 23.126c-.003.2-.166.361-.365.361" transform="translate(1) matrix(-1 0 0 1 187 0)"/>
                    <g transform="translate(1) matrix(-1 0 0 1 187 0) translate(0 110)">
                        <mask id="15usqt18ch" fill="#fff">
                            <use xlink:href="#v28ss3b9tf"/>
                        </mask>
                        <path fill="url(#0lzh03fwqg)" d="M.402 7.956h165.194c.213 0 .387-.194.387-.431V.485c0-.237-.174-.43-.387-.43H.402c-.213 0-.387.193-.387.43v7.04c0 .237.174.43.387.43" mask="url(#15usqt18ch)"/>
                    </g>
                    <path fill="#7D97F4" d="M102 86L102 89.998 133 90 133 86.002 102 86M90 81L90 84.997 140.999 85 141 81.002 90 81M106 75L106 78.997 147 79 147 75.003 106 75M106 71L106 74.998 128 75 128 71.001 106 71M106 65L106 68.997 147 69 147 65.002 106 65M103 60L103 63.998 137 64 137 60.002 103 60M90 55L90 58.998 127 59 127 55.002 90 55M105 50L105 53.998 147 54 147 50.002 105 50M106 45L106 48.998 148 49 148 45.003 106 45M106 40L106 43.998 146.999 44 147 40.003 106 40M98 35L98 38.998 132 39 132 35.002 98 35M77 50L77 53.999 86 54 86 50 77 50M77 55L77 58.999 86 59 86 55 77 55M77 64L86 64 86 60 77 60zM77.001 65L77 69 86 69 86 65.001 77.001 65M77.001 71L77 75 86 75 86 71.001 77.001 71M77.001 75L77 79 86 79 86 75.001 77.001 75M77 81L77 85 86 85 86 81.001 77 81M77 86L77 90 86 90 86 86.001 77 86M77 91L77 94.999 86 95 86 91.001 77 91M77 96L77 100 86 100 86 96.001 77 96M77 100L77 104 86 104 86 100.001 77 100M77 45L77 48.999 86 49 86 45 77 45M77 40L77 44 86 44 86 40.001 77 40M77 35L77 39 86 39 86 35.001 77 35M77 30L77 33.999 86 34 86 30.001 77 30M90 30v3.998L132 34c0-2.208-1.353-3.998-3.022-3.998L90 30M106 101L106 104.998 148 105 148 101.002 106 101M106 96L106 99.998 148 100 148 96.003 106 96M106 91v3.998L133 95c0-2.208-.87-4-1.943-4H106M72.472 106h.056c.261 0 .472-.185.472-.413V27.413c0-.228-.21-.413-.472-.413h-.056c-.26 0-.472.185-.472.413v78.174c0 .228.212.413.472.413" transform="translate(1) matrix(-1 0 0 1 187 0)"/>
                    <g transform="translate(1) matrix(-1 0 0 1 187 0) translate(79 22)">
                        <mask id="5odrnot7hk" fill="#fff">
                            <use xlink:href="#ngfe2239ci"/>
                        </mask>
                        <path fill="url(#0xl7tvkwtj)" d="M65.997 4.989L.043 3.174c.28-.666.582-1.328.906-1.984.19-.387.388-.77.592-1.147l63.007 1.673c.536 1.069 1.019 2.16 1.449 3.273" mask="url(#5odrnot7hk)"/>
                    </g>
                    <g transform="translate(1) matrix(-1 0 0 1 187 0) translate(76 26)">
                        <mask id="q4nie4jjhn" fill="#fff">
                            <use xlink:href="#sz1jf5kz7l"/>
                        </mask>
                        <path fill="url(#ejuntvhntm)" d="M36.52 49.973c-5.548 0-11.197-1.274-16.508-3.963-3.9-1.974-7.293-4.549-10.121-7.548h.475v-3.015H7.343c-.483-.639-.94-1.29-1.378-1.956h4.4v-3.015H4.189c-.374-.712-.724-1.434-1.05-2.167h7.228v-3.015H1.96C-.777 17.245-.646 8.283 2.912.048L69.47 1.833c.19.478.368.96.537 1.445L29.851 2.201c-.01-.002-.02-.002-.03-.002-.196 0-.334.162-.34.352-.004.198.152.364.351.368L70.25 4.003c1.183 3.651 1.778 7.482 1.734 11.342l-41.498-.002v3.016l41.333.001c-.066.675-.153 1.35-.259 2.023l-41.479-.002v3.016l40.865.001c-.17.677-.36 1.352-.573 2.023H30.08v3.014l39.184.001c-.32.762-.669 1.516-1.048 2.264-1.923 3.8-4.45 7.095-7.41 9.836l-30.32-.001v3.015l26.576.001c-1.26.88-2.573 1.673-3.93 2.379v-.35H29.945v3.014h16.469c-3.195.91-6.527 1.38-9.895 1.38M26.85 35.5v3.016l34.315.001v-3.015L26.85 35.5m-13.125-5.045v3.015l36.638.001v-3.015l-36.638-.001M1.51 20.38v3.015l8.857.001V20.38H1.509m0-5.034v3.015h8.857v-3.015H1.509m21.43-5.041v3.015l34.152.001v-3.015l-34.153-.001M1.51 10.304v3.016h8.857v-3.015l-8.857-.001m12.218-5.038V8.28l42.47.002c0-1.666-1.37-3.016-3.057-3.016l-39.413-.001m-12.218 0v3.015l8.857.001V5.267H1.509" mask="url(#q4nie4jjhn)"/>
                    </g>
                    <path fill="#BECBFA" d="M146 30l-40.647-1.803c-.2-.008-.358-.284-.353-.613.006-.315.144-.584.34-.584.011 0 .021 0 .032.002l40.383 1.792c.084.4.166.803.245 1.206M121.627 75H106v-4h22v.465c-2.032 1.476-4.168 2.659-6.373 3.535M132.296 69L106 68.998V65l30 .002c-1.17 1.45-2.409 2.786-3.704 3.998M137 64L103 63.998 103 60 137 60.002 137 64M127 59L90 58.998 90 55 127 55.002 127 59M144.9 54l-38.9-.002V50l40 .002c-.317 1.344-.684 2.678-1.1 3.998M146.392 49L106 48.998V45l41 .003c-.157 1.337-.36 2.67-.608 3.997M146.837 44L106 43.998V40l41 .003c-.011 1.33-.065 2.664-.163 3.997M132 39L98 38.998 98 35 132 35.002 132 39M86 54h-7.738c-.47-1.311-.89-2.646-1.262-4h9v4M86 59h-4.274c-.624-1.298-1.2-2.635-1.726-4h6v4M86 64h-.628c-1.203-1.278-2.328-2.614-3.372-4h4v4M86 49L77 48.999 77 45 86 45 86 49M86 44L77 44 77 40 86 40.001 86 44M86 39L77 39 77 35 86 35.001 86 39M86 34L77 33.999 77 30 86 30.001 86 34M132 34l-42-.002V30l38.978.002c1.669 0 3.022 1.79 3.022 3.998" transform="translate(1) matrix(-1 0 0 1 187 0)"/>
                    <g transform="translate(1) matrix(-1 0 0 1 187 0) translate(72)">
                        <mask id="fngaibwagq" fill="#fff">
                            <use xlink:href="#ya02esqvno"/>
                        </mask>
                        <path fill="url(#wafcadv6sp)" d="M9.475 24.058C17.854 7.534 38.308 1.045 55.16 9.566c16.852 8.522 23.72 28.825 15.34 45.35-8.38 16.523-28.833 23.01-45.685 14.49C7.963 60.884 1.095 40.58 9.475 24.058zM4.22 21.4c-9.822 19.37-1.772 43.168 17.982 53.156 19.753 9.989 43.73 2.384 53.55-16.985 9.823-19.37 1.773-43.169-17.981-53.157C38.019-5.574 14.042 2.032 4.22 21.401z" mask="url(#fngaibwagq)"/>
                    </g>
                    <path fill="#BDD0FB" d="M182.181 133.926c2.114.301 3.578-.317 4.353-1.837.789-1.548.56-3.522-.568-4.912l-5.8-7.142c-.035-.043-.095-.047-.134-.008-.04.038-.043.105-.008.148l5.8 7.142c1.075 1.323 1.294 3.2.544 4.669-.74 1.454-2.156 2.036-4.228 1.722-.052-.007-.1.033-.107.09-.007.057.03.11.081.118l.067.01M177.887 119c.027.003.056-.005.08-.024.04-.033.045-.092.007-.13l-.798-.815c-.037-.038-.1-.042-.142-.007-.042.033-.045.092-.008.13l.798.815c.017.017.04.028.063.03" transform="translate(1) matrix(-1 0 0 1 187 0)"/>
                    <path fill="#7D97F4" d="M3.298 106c-.59.878-2.93 20.75-3.297 28.09-.025.496.37.91.863.91.426 0 .788-.312.854-.735L6 106.632 3.298 106M22.702 106c.59.878 2.93 20.75 3.297 28.09.025.496-.37.91-.863.91-.426 0-.788-.312-.854-.735L20 106.632l2.702-.632" transform="translate(1) matrix(-1 0 0 1 187 0)"/>
                    <path fill="#7D97F4" d="M.002 105.71l-.002.208c-.014 1.499 1.325 2.728 3.002 2.755l19.873.327c1.653.026 3.03-1.125 3.11-2.6l.011-.19c.084-1.54-1.271-2.836-2.995-2.866l-19.882-.343c-1.701-.03-3.103 1.188-3.117 2.709" transform="translate(1) matrix(-1 0 0 1 187 0)"/>
                    <g transform="translate(1) matrix(-1 0 0 1 187 0) translate(32 133)">
                        <mask id="g768h14fzt" fill="#fff">
                            <use xlink:href="#kz2l4uwlmr"/>
                        </mask>
                        <path fill="url(#t5szyzvirs)" d="M6.044.556C2.382.556.762.285.038.038c.14.519.676.928 1.353.928h12.954c.436 0 .712-.36.608-.686-1.477.102-4.613.276-8.909.276" mask="url(#g768h14fzt)"/>
                    </g>
                    <g transform="translate(1) matrix(-1 0 0 1 187 0) translate(32 130)">
                        <mask id="f283zl4phw" fill="#fff">
                            <use xlink:href="#37j97pd61u"/>
                        </mask>
                        <path fill="url(#hu8oeimxwv)" d="M14.953 3.652c-.021-.08-.052-.16-.107-.234C13.86 2.081 11.878-.019 9.181.021 5.231.08 3.854.535.784.046L.06 2.595c-.074.259-.075.519-.022.76.724.303 2.344.637 6.006.637 4.296 0 7.432-.214 8.909-.34" mask="url(#f283zl4phw)"/>
                    </g>
                    <g transform="translate(1) matrix(-1 0 0 1 187 0) translate(32 126)">
                        <mask id="qg7mv9w4ay" fill="#fff">
                            <use xlink:href="#4k167o058x"/>
                        </mask>
                        <path fill="#F8CDBA" d="M.918.074L.058 3.48s1.906 1.01 3.584.2l.33-2.952L.917.074" mask="url(#qg7mv9w4ay)"/>
                    </g>
                    <g transform="translate(1) matrix(-1 0 0 1 187 0) translate(55 126)">
                        <mask id="izzf638v0B" fill="#fff">
                            <use xlink:href="#k8zy7odz5z"/>
                        </mask>
                        <path fill="url(#tn85kkahjA)" d="M4.623 5.539C2.043 7.713.725 8.445.053 8.664c.439.359 1.084.39 1.56-.012L10.738.959c.307-.259.266-.73-.02-.946-.974.965-3.07 2.975-6.095 5.526" mask="url(#izzf638v0B)"/>
                    </g>
                    <g transform="translate(1) matrix(-1 0 0 1 187 0) translate(54 125)">
                        <mask id="qs6ko4zwhE" fill="#fff">
                            <use xlink:href="#7iymy50qeC"/>
                        </mask>
                        <path fill="url(#yrqncx2iuD)" d="M11.98.419c-.06-.043-.123-.08-.2-.098-1.416-.335-3.944-.61-5.835.995-2.77 2.351-3.504 3.468-5.942 4.93L.85 8.407c.086.22.224.398.39.532.676-.216 2.004-.937 4.6-3.078C8.89 3.349 11 1.369 11.98.419" mask="url(#qs6ko4zwhE)"/>
                    </g>
                    <g transform="translate(1) matrix(-1 0 0 1 187 0) translate(12 95)">
                        <mask id="a482iarumH" fill="#fff">
                            <use xlink:href="#g1sc0i004F"/>
                        </mask>
                        <path fill="url(#qcuu2aiqpG)" d="M3.982.04s20.534 1.692 24.747 3.695c4.213 2.002-3.437 30.072-3.437 30.072s-1.147.558-3.7-.244c0 0 2.618-20.714.67-25.206L.03 4.685 3.982.039" mask="url(#a482iarumH)"/>
                    </g>
                    <g transform="translate(1) matrix(-1 0 0 1 187 0) translate(51 126)">
                        <mask id="5qti8g8rvJ" fill="#fff">
                            <use xlink:href="#yhm9be3hiI"/>
                        </mask>
                        <path fill="#F8CDBA" d="M.072 1.219c.207.166 2.21 3.735 2.21 3.735s2.231-.426 2.686-1.673L2.961.061.072 1.218" mask="url(#5qti8g8rvJ)"/>
                    </g>
                    <g transform="translate(1) matrix(-1 0 0 1 187 0) translate(4 95)">
                        <mask id="vx9nyzjjiM" fill="#fff">
                            <use xlink:href="#iq5xpr02iK"/>
                        </mask>
                        <path fill="url(#4tyv08qw8L)" d="M.705.003S.04 1.609.067 3.745C.105 6.698 2.47 9.093 5.407 9.24l24.127 1.105c.51.023.94.377 1.069.873.566 2.202 3.338 8.963 16.884 22.455.36.359.923.42 1.352.147l1.928-1.223c.203-.128.267-.394.146-.602L36.865 7.91c-.738-1.223-1.924-2.106-3.303-2.46L12.997.175.705.003" mask="url(#vx9nyzjjiM)"/>
                    </g>
                    <g transform="translate(1) matrix(-1 0 0 1 187 0) translate(22 56)">
                        <mask id="8sx6noxbtO" fill="#fff">
                            <use xlink:href="#uf8gr7n3yN"/>
                        </mask>
                        <path fill="#D3A692" d="M4.938.037S2.51 4.646.034 6.878l5.117 3.065S6.305 5.065 8.94 3.635l-4-3.598" mask="url(#8sx6noxbtO)"/>
                    </g>
                    <g transform="translate(1) matrix(-1 0 0 1 187 0) translate(4 62)">
                        <mask id="1ig2n9fstQ" fill="#fff">
                            <use xlink:href="#h29p7wv7yP"/>
                        </mask>
                        <path fill="#FF3A6D" d="M13.122 32.216s8.921-11.894 12.373-15.13c0 0 5.506 8.615 17.76 9.835l.683-1.514s-9.755-4.46-12.759-11.312c-3.003-6.853-4.21-9.775-6.942-11.563-1.701-1.114-2.72-1.875-3.247-2.29-.288-.228-.686-.254-1-.063C17.09 1.931 3.444 11.198.065 32.216c0 0 6.68 1.614 13.056 0z" mask="url(#1ig2n9fstQ)"/>
                    </g>
                    <g transform="translate(1) matrix(-1 0 0 1 187 0) translate(25 73)">
                        <mask id="6e0m3c1c7T" fill="#fff">
                            <use xlink:href="#7ncbj35d0R"/>
                        </mask>
                        <path fill="url(#9eilpv0guS)" d="M.046.056s1.401 3.122 3.895 5.901L.046.056" mask="url(#6e0m3c1c7T)"/>
                    </g>
                    <g transform="translate(1) matrix(-1 0 0 1 187 0) translate(46 86)">
                        <mask id="o5hod2qzgV" fill="#fff">
                            <use xlink:href="#ib2gd45loU"/>
                        </mask>
                        <path fill="#F8CDBA" d="M.037 1.642l1.287-.42L5.23.115c.47-.132.964-.03 1.372.284L9.96 2.984.686 2.965.037 1.642" mask="url(#o5hod2qzgV)"/>
                    </g>
                    <g transform="translate(1) matrix(-1 0 0 1 187 0) translate(25 50)">
                        <mask id="69w983hkoY" fill="#fff">
                            <use xlink:href="#hbu3xzi3qW"/>
                        </mask>
                        <path fill="url(#glo5k9phxX)" d="M6.84.063S9.18 4.068 9.587 6.282c.406 2.213 1.058 3.597-1.39 4.385-2.45.79-4.725-.21-6.153-2.275 0 0-2.23-3.18-2.008-4.636C.259 2.3 6.839.063 6.839.063" mask="url(#69w983hkoY)"/>
                    </g>
                    <g transform="translate(1) matrix(-1 0 0 1 187 0) translate(21 45)">
                        <mask id="ahj00xdzhab" fill="#fff">
                            <use xlink:href="#vm638mnqjZ"/>
                        </mask>
                        <path fill="url(#9hzw7w198aa)" d="M6.812 12.237l.361-.046S5.28 9.424 6.52 8.738c1.239-.687 6.286-2.37 7.163-4.293.845-1.853-.42-3.948-1.943-4.385-.097-.027-.199.027-.234.12l-.089.232c-.061.16-.293.166-.363.01-.067-.148-.287-.154-.356-.007-.27.577-1.08 1.56-3.507 2.321-3.444 1.08-5.59 2.76-5.325 5.126.017.15-.137.254-.28.194-.282-.121-.709-.14-1.204.384-.862.912-.187 2.907 2.167 4.318.112.067.132.22.032.302-.352.292-.848.942.745 1.522 1.63.593 2.518.392 2.847.265.088-.034.139-.123.12-.213l-.418-2.074c-.022-.108.055-.21.167-.225l.77-.098" mask="url(#ahj00xdzhab)"/>
                    </g>
                    <g transform="translate(1) matrix(-1 0 0 1 187 0) translate(25 55)">
                        <mask id="p9xwxz51mad" fill="#fff">
                            <use xlink:href="#qq0gy0k5eac"/>
                        </mask>
                        <path fill="#F8CDBA" d="M1.997 2.396S1.155-.911.27.25c-.885 1.163.818 3.732 1.604 3.698l.123-1.553" mask="url(#p9xwxz51mad)"/>
                    </g>
                    <g transform="translate(1) matrix(-1 0 0 1 187 0) translate(40 87)">
                        <mask id="rcewjj5qfag" fill="#fff">
                            <use xlink:href="#uqq83rgw9ae"/>
                        </mask>
                        <path fill="url(#vyv6d0s1yaf)" d="M.92 2.897c.015 0 .03.002.046 0l20.106-.03c.497-.001.9-.638.9-1.42-.001-.785-.406-1.434-.902-1.42L.964.06c-.497 0-.9.636-.9 1.42.001.76.38 1.38.856 1.417" mask="url(#rcewjj5qfag)"/>
                    </g>
                    <g transform="translate(1) matrix(-1 0 0 1 187 0) translate(62 69)">
                        <mask id="766izcthwaj" fill="#fff">
                            <use xlink:href="#f1tngg6umah"/>
                        </mask>
                        <path fill="url(#odjgq99fsai)" d="M8.339.566l-.02.043L.142 19.665c-.203.47-.014 1.03.421 1.247.436.219.96.015 1.154-.458L9.895 1.398c.202-.47.013-1.03-.422-1.247-.422-.211-.92-.025-1.134.415" mask="url(#766izcthwaj)"/>
                    </g>
                    <path fill="#BDD0FB" d="M50.54 91c-.087.384-8.386 33.643-10.49 42.074-.243.972.434 1.926 1.365 1.926.649 0 1.215-.478 1.372-1.159L52 93.931 50.54 91M55.46 91c.087.384 8.386 33.643 10.49 42.074.243.972-.434 1.926-1.365 1.926-.65 0-1.215-.478-1.372-1.159L54 93.931 55.46 91" transform="translate(1) matrix(-1 0 0 1 187 0)"/>
                    <path fill="#BDD0FB" d="M56 91h-5v4.32c0 .621.462 1.125 1.033 1.125h.686v9.704c0 .47.35.851.781.851.432 0 .782-.38.782-.851v-9.704h.348c.757 0 1.37-.668 1.37-1.493V91" transform="translate(1) matrix(-1 0 0 1 187 0)"/>
                    <path fill="#BDD0FB" d="M36.338 89h31.267c.437 0 .819.327.928.797l.436 1.875c.157.675-.304 1.332-.933 1.328l-32.083-.204c-.622-.005-1.075-.654-.924-1.323l.38-1.67c.107-.472.49-.803.93-.803" transform="translate(1) matrix(-1 0 0 1 187 0)"/>
                </g>
            </g>
            <g transform="matrix(-1 0 0 1 58 70)">
                <mask id="ak291rzzcam" fill="#fff">
                    <use xlink:href="#mg11x3mxlak"/>
                </mask>
                <path fill="url(#bykfd78vdal)" d="M3.61 0l52.885 56.39c2.219 2.365 1.95 6.117-.581 8.143l-.416.333c-2.24 1.792-5.513 1.42-7.292-.83L0 3.076 3.61 0" mask="url(#ak291rzzcam)"/>
            </g>
        </g>
    </g>
</svg>
