<?xml version="1.0" encoding="UTF-8"?>
<svg id="Layer_2" data-name="Layer 2" xmlns="http://www.w3.org/2000/svg" viewBox="0 0 395.09 382.27">
  <defs>
    <style>
      .cls-1 {
        fill: #fff;
        stroke: #231f20;
        stroke-linecap: round;
        stroke-linejoin: round;
        stroke-width: 12px;
      }
    </style>
  </defs>
  <g id="Layer_1-2" data-name="Layer 1">
    <g>
      <path class="cls-1" d="m389.09,203.93c-.91,3.61-1.61,7.29-2.76,10.82-5.15,15.71-15.19,27.29-29.83,34.9-1.09.57-2.19,1.14-3.24,1.69,1.23,4.82,2.76,9.43,3.55,14.16,5.34,31.83-16.78,60.87-47.86,67.35-1.36.28-3.08,1.62-3.56,2.88-17.34,45.19-74.86,54.8-105.81,17.6-.63-.75-1.25-1.51-1.7-2.05-4.82,4.44-9.19,9.28-14.33,13.06-32.9,24.2-79.62,10-93.84-28.37-.72-1.93-1.59-2.85-3.8-3.3-29.45-6.11-49.48-30.93-48.44-60.56.24-6.86,2.37-13.66,3.7-20.89-22.47-11.27-35.97-29.55-35.15-56.06.82-26.37,15.26-43.72,39.32-54.06-6.34-17.03-5.72-33.87,3.22-49.98,8.93-16.11,22.83-25.7,40.59-29.86,3.56-26.8,17.7-45.35,43.73-52.7,25.75-7.27,47.25,1.33,64.57,21.74,17.09-20.31,38.67-29.02,64.53-21.75,25.9,7.27,40.01,25.68,43.77,52.69,17.42,4,31.41,13.5,40.39,29.51,9.02,16.08,9.88,32.93,3.35,50.43,1.86.83,3.67,1.55,5.41,2.41,18.59,9.2,29.95,23.87,33.49,44.46.1.58.46,1.11.69,1.66v14.25ZM92.37,83.97c-16.68,4.24-27.66,17.5-28.38,33.8-.4,9,2.41,16.86,7.77,24.03,6.12,8.19,2.11,17.41-7.94,18.74-1.48.2-2.97.39-4.45.58-19.03,2.46-33.52,21.59-30.6,40.38,2.64,16.95,13.98,28.35,31.41,31.59,10.53,1.95,13.92,10.85,7.43,19.48-14.69,19.54-7.24,46.4,15.43,55.61.99.4,2.05.64,3.19.99.21-.85.37-1.32.44-1.8,3.91-29.88,30.52-52.93,60.57-52.46,6.47.1,11.26,4.7,11.37,10.93.11,6.46-4.55,11.26-11.15,11.59-2.11.11-4.22.34-6.31.64-21.04,3.08-35.65,23.28-31.91,44.05,3.74,20.74,24.91,35.02,45.51,30.7,19.07-4,31.41-19.08,31.48-38.67.07-18.75.02-37.5.02-56.24,0-63.62.06-127.24-.03-190.86-.04-25.36-21.85-43-46.05-37.07-14.54,3.56-24.09,12.95-27.29,27.73-3.12,14.38,1.48,26.36,13.2,35.38,6.35,4.89,13.75,6.57,21.65,7.09,6.76.44,11.23,5.89,10.73,12.03-.51,6.18-5.74,10.76-12.34,10.54-9.34-.31-18.22-2.51-26.47-7.01-13.02-7.1-22.02-17.71-27.28-31.77Zm210.28.03c-.41.87-.74,1.53-1.03,2.21-9.85,22.67-27.29,34.58-51.7,36.47-7.36.57-12.93-3.96-13.44-10.51-.51-6.52,4.36-11.47,11.86-12.24,3.21-.33,6.49-.55,9.56-1.45,18.42-5.42,28.8-23.87,23.97-42.29-4.88-18.61-24.32-30.66-43.07-26.69-18.31,3.87-30.05,18.41-30.07,37.56-.06,45.37-.02,90.74-.02,136.11,0,37.25-.06,74.49.03,111.74.04,16.96,10.57,31.36,26.4,36.63,15.68,5.21,33.33-.02,43.26-13.23,8.94-11.89,10.51-25.06,4.28-38.49-6.77-14.58-18.94-21.65-34.84-22.41-6.92-.33-11.63-5.01-11.5-11.62.12-6.37,4.98-10.95,11.76-10.89,18.36.17,33.62,7.3,45.81,20.95,8.37,9.37,13.07,20.5,14.66,32.94.55.06.94.2,1.27.11,14.74-3.8,26.86-21.91,25.11-37.18-.88-7.68-3.84-14.3-8.46-20.44-5.25-6.99-1.55-16.35,6.83-18.04,1.34-.27,2.7-.47,4.04-.74,17.23-3.47,29.98-19.45,29.24-36.63-.77-18.01-14.38-32.76-32.14-34.89-2.34-.28-4.77-.48-6.94-1.29-7.59-2.86-9.28-11.21-3.91-18.55,15.74-21.51,5.13-50.81-20.94-57.16Z"/>
      <path class="cls-1" d="m147.53,191.14c-.26,26.4-22.46,48.63-48.63,48.5-6.68-.03-11.97-5.03-12.01-11.33-.04-6.25,4.94-11.2,11.92-11.45,8.52-.31,15.51-3.63,20.6-10.4,6.04-8.03,7.16-16.96,2.9-26.1-4.66-9.99-13.02-14.7-23.82-15.38-5.63-.36-9.53-3.19-10.99-7.96-2.15-7.02,2.91-14.19,10.25-14.56,22.66-1.12,45.16,17.21,48.76,39.78.47,2.95.69,5.93,1.02,8.9Z"/>
      <path class="cls-1" d="m247.64,190.79c.03-26.4,22.16-48.48,48.42-48.33,6.6.04,11.66,4.65,11.96,10.89.3,6.05-4.66,11.18-11.22,11.61-14.25.94-24.05,9.22-26.21,22.17-2.44,14.6,8.92,28.81,23.67,29.62,1,.05,2,.03,2.99.14,6.4.76,11.1,5.92,10.77,11.79-.36,6.41-5.63,11.07-12.38,10.93-26.68-.54-48.03-22.27-48-48.83Z"/>
    </g>
  </g>
</svg>